<?xml version="1.0" encoding="UTF-8"?>
<svg version="1.1" xmlns="http://www.w3.org/2000/svg" viewBox="0 0 306 305">
  <path d="M 22 14 L 18 19 L 18 21 L 19 22 L 19 32 L 18 33 L 18 45 L 19 46 L 19 49 L 20 50 L 20 53 L 21 54 L 22 62 L 23 63 L 23 65 L 25 69 L 25 74 L 26 75 L 26 78 L 27 79 L 27 83 L 28 84 L 28 87 L 29 88 L 29 93 L 31 97 L 31 100 L 32 101 L 33 108 L 38 117 L 41 120 L 45 122 L 51 122 L 52 123 L 56 123 L 66 118 L 70 117 L 72 115 L 73 115 L 76 111 L 77 107 L 78 106 L 78 97 L 82 94 L 83 95 L 85 95 L 93 103 L 93 105 L 94 106 L 91 110 L 86 112 L 82 116 L 81 116 L 77 120 L 76 123 L 72 127 L 67 129 L 56 139 L 55 143 L 56 144 L 56 147 L 57 148 L 57 152 L 58 153 L 58 155 L 60 159 L 63 161 L 66 161 L 70 159 L 74 155 L 83 153 L 85 151 L 88 150 L 95 140 L 98 133 L 102 129 L 104 124 L 108 121 L 112 122 L 115 125 L 116 125 L 121 130 L 122 132 L 122 134 L 119 137 L 112 139 L 111 141 L 104 147 L 104 148 L 102 150 L 102 152 L 100 156 L 96 160 L 93 161 L 90 164 L 89 164 L 84 169 L 83 172 L 80 175 L 80 177 L 79 178 L 79 180 L 80 181 L 80 188 L 83 194 L 87 195 L 93 192 L 96 192 L 97 191 L 99 191 L 105 188 L 109 184 L 110 181 L 118 173 L 119 170 L 123 166 L 123 165 L 128 159 L 130 153 L 133 150 L 135 149 L 142 149 L 144 150 L 148 154 L 148 156 L 149 157 L 148 162 L 143 168 L 143 169 L 141 171 L 137 173 L 134 176 L 132 182 L 124 190 L 121 196 L 121 198 L 120 199 L 121 212 L 123 216 L 125 218 L 129 220 L 134 220 L 136 218 L 139 212 L 145 206 L 146 202 L 149 199 L 152 191 L 155 188 L 157 184 L 157 180 L 158 178 L 162 175 L 166 175 L 167 176 L 169 176 L 178 185 L 182 193 L 182 198 L 183 199 L 183 212 L 184 213 L 184 220 L 185 221 L 185 232 L 186 233 L 186 246 L 187 247 L 187 250 L 189 254 L 189 258 L 190 259 L 191 266 L 192 267 L 192 269 L 193 270 L 193 272 L 195 276 L 201 283 L 202 283 L 205 286 L 207 286 L 208 287 L 217 288 L 218 287 L 220 287 L 221 286 L 225 285 L 228 282 L 229 278 L 233 272 L 233 270 L 234 269 L 234 267 L 235 266 L 236 262 L 253 244 L 254 241 L 266 229 L 266 228 L 274 219 L 276 215 L 278 207 L 281 202 L 281 199 L 285 192 L 285 181 L 282 175 L 277 171 L 271 170 L 261 165 L 253 165 L 252 164 L 238 164 L 237 163 L 230 163 L 229 162 L 223 162 L 222 163 L 203 163 L 202 162 L 196 162 L 195 163 L 193 163 L 192 162 L 190 162 L 182 154 L 181 154 L 179 152 L 178 150 L 178 146 L 183 139 L 183 137 L 184 136 L 185 132 L 190 126 L 191 123 L 195 119 L 200 107 L 203 104 L 207 103 L 211 100 L 211 95 L 209 91 L 207 89 L 203 87 L 199 87 L 198 86 L 192 87 L 185 91 L 182 94 L 177 96 L 175 98 L 174 100 L 173 108 L 172 109 L 172 116 L 171 117 L 170 129 L 167 134 L 163 135 L 154 128 L 154 127 L 150 122 L 150 117 L 152 113 L 160 105 L 162 101 L 162 99 L 163 98 L 163 90 L 162 89 L 162 86 L 163 85 L 163 83 L 165 79 L 165 74 L 167 70 L 167 62 L 169 58 L 169 54 L 171 50 L 172 42 L 173 41 L 173 32 L 171 28 L 164 22 L 162 21 L 155 21 L 151 24 L 151 25 L 147 30 L 147 32 L 148 33 L 148 35 L 150 39 L 150 57 L 149 58 L 149 71 L 148 72 L 148 74 L 146 77 L 146 79 L 143 85 L 143 95 L 142 96 L 142 101 L 138 106 L 134 106 L 132 104 L 132 99 L 133 98 L 133 88 L 134 87 L 135 80 L 140 70 L 140 61 L 138 57 L 136 55 L 132 53 L 130 53 L 129 52 L 124 53 L 121 57 L 121 61 L 120 62 L 120 66 L 118 70 L 118 75 L 117 76 L 117 80 L 116 82 L 113 85 L 111 85 L 106 80 L 105 80 L 100 74 L 100 68 L 105 63 L 110 53 L 110 51 L 112 47 L 112 43 L 107 32 L 101 26 L 93 22 L 83 15 L 79 14 L 78 13 L 63 13 L 62 12 L 54 11 L 53 10 L 45 10 L 44 11 L 29 11 L 28 12 L 26 12 Z" fill="#a9a9a9"/>
  <path d="M 205 240 L 206 241 L 209 241 L 211 242 L 216 247 L 218 251 L 219 256 L 220 257 L 220 260 L 221 261 L 221 267 L 222 268 L 222 274 L 221 276 L 217 279 L 211 279 L 209 278 L 205 274 L 204 270 L 203 269 L 203 262 L 202 261 L 202 252 L 200 248 L 200 244 Z" fill="#a9a9a9"/>
  <path d="M 198 209 L 202 209 L 206 213 L 207 217 L 208 218 L 208 220 L 209 221 L 209 225 L 207 229 L 204 231 L 202 231 L 198 226 L 198 223 L 197 222 L 197 217 L 196 216 L 196 211 Z" fill="#a9a9a9"/>
  <path d="M 234 186 L 234 184 L 236 181 L 237 181 L 239 179 L 241 179 L 245 177 L 261 177 L 265 179 L 268 184 L 267 187 L 265 189 L 263 189 L 262 190 L 260 189 L 256 189 L 255 190 L 242 190 L 241 189 L 237 189 Z" fill="#a9a9a9"/>
  <path d="M 58 38 L 66 38 L 67 39 L 69 39 L 74 44 L 76 48 L 77 56 L 78 57 L 78 64 L 77 65 L 76 69 L 72 73 L 70 74 L 61 74 L 59 73 L 54 68 L 53 66 L 53 63 L 52 62 L 53 61 L 54 53 L 55 52 L 55 49 L 54 48 L 54 42 L 55 40 Z" fill="#a9a9a9"/>
</svg>